# Blender v2.74 (sub 0) OBJ File: ''
# www.blender.org
mtllib sm_skyBox2.mtl
o Cube_Cube.001
v -200.000000 -200.000000 200.000000
v -200.000000 200.000000 200.000000
v -200.000000 -200.000000 -200.000000
v -200.000000 200.000000 -200.000000
v 200.000000 -200.000000 200.000000
v 200.000000 200.000000 200.000000
v 200.000000 -200.000000 -200.000000
v 200.000000 200.000000 -200.000000
vt 0.259375 0.246975
vt 0.509275 0.246975
vt 0.509275 0.496875
vt 0.259375 0.496875
vt 0.759175 0.496875
vt 0.759175 0.746775
vt 0.509275 0.746775
vt 0.509275 0.996675
vt 0.259375 0.996675
vt 0.259375 0.746775
vt 0.009475 0.746775
vt 0.009475 0.496875
vt 0.828025 0.150100
vt 0.828025 0.400000
vt 0.578125 0.400000
vt 0.578125 0.150100
vn -1.000000 0.000000 0.000000
vn 0.000000 0.000000 -1.000000
vn 1.000000 0.000000 0.000000
vn 0.000000 0.000000 1.000000
vn 0.000000 -1.000000 0.000000
vn 0.000000 1.000000 0.000000
usemtl None
s off
f 2/1/1 4/2/1 3/3/1 1/4/1
f 4/5/2 8/6/2 7/7/2 3/3/2
f 8/8/3 6/9/3 5/10/3 7/7/3
f 6/11/4 2/12/4 1/4/4 5/10/4
f 1/4/5 3/3/5 7/7/5 5/10/5
f 6/13/6 8/14/6 4/15/6 2/16/6
